<svg width="60" height="60" viewBox="0 0 60 60" fill="none" xmlns="http://www.w3.org/2000/svg">
<rect width="60" height="60" fill="#ECECEC"/>
<path d="M30.0001 55.9965C26.6041 56.0022 23.2404 55.3371 20.1021 54.0394C16.9638 52.7416 14.1127 50.8369 11.7125 48.4344C1.62838 38.3503 1.62838 21.9434 11.7125 11.8593C16.5973 6.97444 23.0918 4.28271 30.0001 4.28271C36.9084 4.28271 43.4029 6.97237 48.2877 11.8593C58.3718 21.9434 58.3718 38.3503 48.2877 48.4344C45.8875 50.8369 43.0364 52.7416 39.8981 54.0394C36.7598 55.3371 33.3961 56.0022 30.0001 55.9965ZM30.0001 8.42065C24.1967 8.42065 18.7429 10.68 14.638 14.7848C10.5332 18.8896 8.27597 24.3434 8.27597 30.1469C8.27597 35.9503 10.5353 41.4041 14.638 45.5089C23.1104 53.9772 36.8939 53.9772 45.3622 45.5089C49.4649 41.4041 51.7242 35.9482 51.7242 30.1469C51.7242 24.3455 49.4649 18.8896 45.3622 14.7848C41.2594 10.68 35.8036 8.42065 30.0001 8.42065Z" fill="black"/>
<path d="M20.4913 23.3233C20.763 23.323 21.0321 23.3764 21.2832 23.4804C21.5342 23.5845 21.7622 23.7371 21.9541 23.9295L30.0023 31.9757L38.0506 23.9295C38.2427 23.7374 38.4708 23.585 38.7217 23.481C38.9727 23.3771 39.2417 23.3236 39.5134 23.3236C39.785 23.3236 40.054 23.3771 40.305 23.481C40.556 23.585 40.784 23.7374 40.9761 23.9295C41.1682 24.1216 41.3206 24.3496 41.4246 24.6006C41.5285 24.8516 41.582 25.1206 41.582 25.3922C41.582 25.6639 41.5285 25.9329 41.4246 26.1839C41.3206 26.4349 41.1682 26.6629 40.9761 26.855L31.4651 36.364C31.2731 36.5563 31.0451 36.7088 30.7941 36.8129C30.5431 36.917 30.2741 36.9706 30.0023 36.9706C29.7306 36.9706 29.4616 36.917 29.2106 36.8129C28.9596 36.7088 28.7316 36.5563 28.5396 36.364L19.0285 26.855C18.7383 26.566 18.5404 26.1973 18.46 25.7957C18.3797 25.3941 18.4204 24.9777 18.5772 24.5993C18.7339 24.2208 18.9995 23.8975 19.3403 23.6703C19.6811 23.4432 20.0817 23.3224 20.4913 23.3233Z" fill="black"/>
</svg>
