<svg width="16.67" height="15" viewBox="0 0 34 30" fill="none" xmlns="http://www.w3.org/2000/svg">
<path d="M11.6667 13.3333C12.9852 13.3333 14.2741 12.9423 15.3705 12.2098C16.4668 11.4773 17.3213 10.4361 17.8259 9.21789C18.3304 7.99972 18.4625 6.65927 18.2052 5.36607C17.948 4.07286 17.3131 2.88497 16.3807 1.95262C15.4484 1.02027 14.2605 0.385336 12.9673 0.128101C11.6741 -0.129134 10.3336 0.00288854 9.11544 0.507473C7.89727 1.01206 6.85608 1.86654 6.12353 2.96287C5.39099 4.0592 5 5.34813 5 6.66667C5 8.43478 5.70238 10.1305 6.95262 11.3807C8.20286 12.631 9.89856 13.3333 11.6667 13.3333ZM11.6667 3.33334C12.3259 3.33334 12.9704 3.52883 13.5186 3.8951C14.0667 4.26138 14.494 4.78197 14.7463 5.39106C14.9986 6.00014 15.0646 6.67037 14.9359 7.31697C14.8073 7.96357 14.4899 8.55752 14.0237 9.02369C13.5575 9.48987 12.9636 9.80734 12.317 9.93595C11.6704 10.0646 11.0001 9.99856 10.3911 9.74627C9.78197 9.49398 9.26137 9.06673 8.8951 8.51857C8.52883 7.97041 8.33333 7.32594 8.33333 6.66667C8.33333 5.78261 8.68452 4.93477 9.30964 4.30965C9.93476 3.68453 10.7826 3.33334 11.6667 3.33334ZM25 16.6667C25.9889 16.6667 26.9556 16.3734 27.7778 15.824C28.6001 15.2746 29.241 14.4937 29.6194 13.5801C29.9978 12.6665 30.0968 11.6611 29.9039 10.6912C29.711 9.72131 29.2348 8.8304 28.5355 8.13114C27.8363 7.43187 26.9454 6.95567 25.9754 6.76274C25.0055 6.56982 24.0002 6.66883 23.0866 7.04727C22.1729 7.42571 21.3921 8.06657 20.8426 8.88882C20.2932 9.71106 20 10.6778 20 11.6667C20 12.9928 20.5268 14.2645 21.4645 15.2022C22.4021 16.1399 23.6739 16.6667 25 16.6667ZM25 10C25.3296 10 25.6519 10.0978 25.9259 10.2809C26.2 10.464 26.4136 10.7243 26.5398 11.0289C26.6659 11.3334 26.6989 11.6685 26.6346 11.9918C26.5703 12.3151 26.4116 12.6121 26.1785 12.8452C25.9454 13.0783 25.6484 13.237 25.3251 13.3013C25.0018 13.3656 24.6667 13.3326 24.3622 13.2065C24.0576 13.0803 23.7973 12.8667 23.6142 12.5926C23.4311 12.3185 23.3333 11.9963 23.3333 11.6667C23.3333 11.2246 23.5089 10.8007 23.8215 10.4882C24.134 10.1756 24.558 10 25 10ZM25 18.3333C23.153 18.3354 21.3591 18.951 19.9 20.0833C18.2675 18.4573 16.1901 17.351 13.9297 16.904C11.6693 16.4571 9.3272 16.6895 7.19871 17.5719C5.07022 18.4543 3.25069 19.9472 1.96957 21.8624C0.688449 23.7776 0.00311699 26.0292 0 28.3333C0 28.7754 0.175595 29.1993 0.488155 29.5118C0.800716 29.8244 1.22464 30 1.66667 30C2.10869 30 2.53262 29.8244 2.84518 29.5118C3.15774 29.1993 3.33333 28.7754 3.33333 28.3333C3.33333 26.1232 4.21131 24.0036 5.77411 22.4408C7.33691 20.878 9.45653 20 11.6667 20C13.8768 20 15.9964 20.878 17.5592 22.4408C19.122 24.0036 20 26.1232 20 28.3333C20 28.7754 20.1756 29.1993 20.4882 29.5118C20.8007 29.8244 21.2246 30 21.6667 30C22.1087 30 22.5326 29.8244 22.8452 29.5118C23.1577 29.1993 23.3333 28.7754 23.3333 28.3333C23.3373 26.3807 22.844 24.4592 21.9 22.75C22.6365 22.168 23.5221 21.8051 24.4552 21.7028C25.3884 21.6005 26.3315 21.763 27.1766 22.1716C28.0217 22.5803 28.7347 23.2186 29.2341 24.0135C29.7334 24.8085 29.9988 25.7279 30 26.6667C30 27.1087 30.1756 27.5326 30.4881 27.8452C30.8007 28.1577 31.2246 28.3333 31.6667 28.3333C32.1087 28.3333 32.5326 28.1577 32.8452 27.8452C33.1577 27.5326 33.3333 27.1087 33.3333 26.6667C33.3333 24.4565 32.4554 22.3369 30.8926 20.7741C29.3297 19.2113 27.2101 18.3333 25 18.3333Z" fill="black"/>
</svg>
