<svg width="15" height="15" viewBox="0 0 30 30" fill="none" xmlns="http://www.w3.org/2000/svg">
<path d="M15 30C6.7284 30 0 23.2716 0 15C0 6.7284 6.7284 0 15 0C23.2716 0 30 6.7284 30 15C30 23.2716 23.2704 30 15 30ZM15 2.4C8.052 2.4 2.4 8.052 2.4 15C2.4 21.948 8.052 27.6 15 27.6C21.948 27.6 27.6 21.948 27.6 15C27.6 8.052 21.9468 2.4 15 2.4ZM14.904 16.104H7.2C6.88174 16.104 6.57652 15.9776 6.35147 15.7525C6.12643 15.5275 6 15.2223 6 14.904C6 14.5857 6.12643 14.2805 6.35147 14.0555C6.57652 13.8304 6.88174 13.704 7.2 13.704H13.704V4.8C13.704 4.48174 13.8304 4.17652 14.0555 3.95147C14.2805 3.72643 14.5857 3.6 14.904 3.6C15.2223 3.6 15.5275 3.72643 15.7525 3.95147C15.9776 4.17652 16.104 4.48174 16.104 4.8V14.904C16.104 15.2223 15.9776 15.5275 15.7525 15.7525C15.5275 15.9776 15.2223 16.104 14.904 16.104Z" fill="black"/>
</svg>
