<svg width="60" height="60" viewBox="0 0 60 60" fill="none" xmlns="http://www.w3.org/2000/svg">
<rect width="60" height="60" fill="#ECECEC"/>
<path d="M30.0001 55.9965C26.6041 56.0022 23.2404 55.3371 20.1021 54.0394C16.9638 52.7416 14.1127 50.8369 11.7125 48.4344C1.62838 38.3503 1.62838 21.9434 11.7125 11.8593C16.5973 6.97444 23.0918 4.28271 30.0001 4.28271C36.9084 4.28271 43.4029 6.97237 48.2877 11.8593C58.3718 21.9434 58.3718 38.3503 48.2877 48.4344C45.8875 50.8369 43.0364 52.7416 39.8981 54.0394C36.7598 55.3371 33.3961 56.0022 30.0001 55.9965ZM30.0001 8.42065C24.1967 8.42065 18.7429 10.68 14.638 14.7848C10.5332 18.8896 8.27597 24.3434 8.27597 30.1469C8.27597 35.9503 10.5353 41.4041 14.638 45.5089C23.1104 53.9772 36.8939 53.9772 45.3622 45.5089C49.4649 41.4041 51.7242 35.9482 51.7242 30.1469C51.7242 24.3455 49.4649 18.8896 45.3622 14.7848C41.2594 10.68 35.8036 8.42065 30.0001 8.42065Z" fill="black"/>
<path d="M39.5106 36.9703C39.2389 36.9706 38.9698 36.9172 38.7188 36.8132C38.4678 36.7091 38.2398 36.5565 38.0479 36.3641L29.9996 28.3179L21.9513 36.3641C21.7592 36.5562 21.5312 36.7086 21.2802 36.8125C21.0292 36.9165 20.7602 36.97 20.4886 36.97C20.2169 36.97 19.9479 36.9165 19.6969 36.8125C19.446 36.7086 19.2179 36.5562 19.0258 36.3641C18.8337 36.172 18.6814 35.944 18.5774 35.693C18.4734 35.442 18.4199 35.173 18.4199 34.9013C18.4199 34.6297 18.4734 34.3607 18.5774 34.1097C18.6814 33.8587 18.8337 33.6307 19.0258 33.4386L28.5369 23.9296C28.7288 23.7373 28.9568 23.5848 29.2078 23.4807C29.4588 23.3766 29.7279 23.323 29.9996 23.323C30.2713 23.323 30.5404 23.3766 30.7914 23.4807C31.0424 23.5848 31.2704 23.7373 31.4624 23.9296L40.9734 33.4386C41.2637 33.7275 41.4616 34.0962 41.5419 34.4979C41.6223 34.8995 41.5815 35.3159 41.4248 35.6943C41.2681 36.0727 41.0024 36.396 40.6616 36.6232C40.3208 36.8504 39.9202 36.9712 39.5106 36.9703Z" fill="black"/>
</svg>
